<?xml version="1.0" encoding="utf-8"?>
<!-- Generator: Adobe Illustrator 16.0.0, SVG Export Plug-In . SVG Version: 6.00 Build 0)  -->
<!DOCTYPE svg PUBLIC "-//W3C//DTD SVG 1.1//EN" "http://www.w3.org/Graphics/SVG/1.1/DTD/svg11.dtd">
<svg version="1.1" xmlns="http://www.w3.org/2000/svg" xmlns:xlink="http://www.w3.org/1999/xlink" x="0px" y="0px" width="370px"
	 height="222px" viewBox="0 0 370 222" enable-background="new 0 0 370 222" xml:space="preserve">
<g id="Layer_2">
</g>
<g id="Layer_1">
	<polygon fill="#FFFFFF" stroke="#FFFFFF" stroke-width="3" stroke-miterlimit="10" points="20.5,16.37 20.5,209.727 
		301.54,111.025 110.352,46.365 	"/>
	<polygon stroke="#000000" stroke-width="2.0689" stroke-miterlimit="10" points="109.275,54.187 143.885,109.916 109.586,170.858 
		279.976,111.432 	"/>
	<polygon fill="#FC8006" stroke="#FC8006" stroke-width="3" stroke-miterlimit="10" points="32.5,27.51 108.855,52.499 
		143.749,110.251 107.932,170.759 32.5,196.588 	"/>
	<polyline fill="none" stroke="#FFFFFF" stroke-width="3.2036" stroke-miterlimit="10" points="107.315,174.387 143.956,110.512 
		108.104,49.408 	"/>
	<path stroke="#000000" stroke-width="2.0689" stroke-miterlimit="10" d="M83.065,144.249l-1.767,1.875
		c-3.691-3.691-7.726-6.901-11.097-10.924c-7.192-8.597-12.642-18.946-13.603-30.257c-0.41-4.835-0.429-9.852,0.13-14.684
		c5.105,0.752,11.492-0.428,15.927-3.053c3.972-2.351,6.507-6.14,8.643-10.136c0,0,0.892,1.916,1.153,2.341l-1.323-2.341
		c2.133,3.997,4.671,7.785,8.642,10.136c4.435,2.625,10.82,3.806,15.929,3.053c0.557,4.832,0.535,9.849,0.127,14.684
		c-0.959,11.311-6.409,21.66-13.603,30.257c-3.37,4.023-7.405,7.233-11.095,10.924"/>
</g>
<g id="Layer_3">
</g>
</svg>
